<svg width="1440" height="804" viewBox="0 0 1440 804" fill="none" xmlns="http://www.w3.org/2000/svg">
<g clip-path="url(#clip0_8035_133888)">
<path d="M588.49 494.108C588.116 493.432 587.938 492.738 589.042 492.222C588.615 492.418 588.188 492.578 587.743 492.738C587.689 493.218 587.636 493.716 587.618 494.232C587.903 494.197 588.188 494.143 588.472 494.108L588.49 494.108Z" fill="white"/>
<path d="M611.436 490.443C615.94 489.696 620.426 488.949 624.93 488.219C620.64 485.248 615.531 487.454 611.436 490.443Z" fill="white"/>
<path d="M574.48 493.681C573.056 493.61 571.685 493.539 570.386 493.539C571.383 493.539 573.056 494.18 574.48 493.681Z" fill="white"/>
<path d="M-204.717 515.457C-179.581 523.446 -141.611 508.127 -128.704 498.84C-108.606 478.931 -89.9499 457.706 -68.4099 439.114C-61.2358 435.128 -56.9278 429.826 -51.178 424.507C-49.736 423.172 -46.87 423.172 -45.4281 421.856C-39.9274 416.767 -34.2663 411.946 -28.4275 407.391C-22.6063 402.836 -16.6072 398.584 -10.43 394.635C0.518078 387.358 12.0003 382.056 23.4823 376.736C39.2724 372.751 55.0624 367.449 72.2944 367.449C90.9506 356.827 108.183 343.555 126.839 331.617C128.281 331.617 129.705 332.951 131.147 332.951C131.147 346.224 129.705 359.496 136.897 371.434C144.071 374.085 149.821 375.42 156.995 376.736C174.227 371.434 191.441 368.766 208.673 362.129C218.713 362.129 227.329 363.464 237.387 366.115C254.619 374.085 271.834 384.689 290.507 391.325C324.954 408.583 355.11 431.143 388.114 449.717C390.98 451.052 395.288 451.052 398.154 452.368C431.176 476.262 471.355 488.201 510.127 498.822C538.841 502.807 567.537 497.488 596.251 496.171C599.117 493.52 604.867 490.869 607.733 493.52C608.819 492.524 610.083 491.421 611.472 490.425C603.817 491.688 596.162 492.951 588.525 494.072C589.131 495.157 590.306 496.171 587.653 496.171C587.653 495.513 587.653 494.837 587.671 494.196C567.092 497.185 546.513 499.142 525.917 497.488C523.051 497.488 518.743 497.488 517.301 493.502C537.399 494.837 556.055 496.153 576.153 492.168C575.708 492.987 575.138 493.414 574.515 493.645C578.877 493.876 583.63 494.161 587.778 492.702C587.938 491.385 588.294 490.264 589.077 489.535C594.987 490.62 600.915 489.909 606.826 488.129C607.591 488.005 608.356 487.827 609.104 487.916L609.033 487.791C608.374 487.774 607.68 487.952 606.95 488.094C607.698 487.863 608.463 487.613 609.211 487.364C609.175 487.56 609.175 487.827 609.175 488.201C620.657 485.55 632.139 482.899 642.197 477.579L647.947 477.579C659.429 470.943 670.911 464.306 683.835 459.005L682.393 459.005L712.532 443.081L712.532 444.416C712.532 441.765 713.974 439.114 716.84 437.779C728.322 432.477 738.38 425.841 746.978 417.87C748.42 416.536 751.286 416.536 752.728 415.219C788.616 387.358 817.33 356.827 850.335 328.966C851.777 327.631 851.777 324.981 853.201 323.664C863.241 313.042 874.741 302.439 884.781 291.817C886.223 290.483 886.223 287.832 887.647 286.515C891.955 282.53 897.687 278.544 899.129 273.243C901.995 269.257 906.303 267.941 909.169 265.272C919.209 251.999 932.133 240.061 942.191 225.454C963.731 205.546 983.812 184.32 1003.91 163.077C1003.96 163.077 1004.02 163.077 1004.07 163.077C1004.76 163.024 1005.46 162.703 1006.13 162.401C1006.69 162.223 1007.19 162.081 1007.52 162.009L1007.47 161.885C1007.72 161.814 1007.97 161.778 1008.22 161.778L1006.78 161.778C1029.74 141.869 1052.7 121.961 1078.55 104.721C1078.96 104.721 1079.48 104.721 1079.99 104.649C1080.44 104.809 1080.94 104.881 1082.01 104.151L1081.93 103.991C1082.47 103.6 1082.84 102.995 1082.84 102.052C1086.88 99.561 1093.45 99.4009 1095.43 95.0241C1099.13 93.6008 1101.77 91.1989 1104.36 88.7793C1114.42 84.7939 1124.46 76.8411 1135.94 75.5067C1140.25 71.5214 1144.56 68.8705 1150.29 66.2195L1148.85 67.5539C1156.03 63.5686 1161.78 60.9176 1168.95 59.5832C1214.88 37.0235 1265.13 25.0854 1316.81 29.0529C1354.14 35.6892 1385.72 54.2636 1416.61 72.8025C1423.82 77.624 1430.92 82.6056 1437.97 87.7118C1445.02 92.818 1452 98.0665 1458.92 103.368C1460.36 104.703 1463.23 104.703 1464.67 106.019L1473.29 113.99C1481.9 116.641 1486.21 124.612 1493.38 128.597C1490.52 127.263 1487.63 125.946 1486.21 128.597C1489.08 131.248 1491.96 133.899 1493.38 137.884C1499.13 143.186 1504.87 148.506 1512.04 151.157C1516.35 156.459 1522.08 157.793 1526.39 163.095C1543.62 171.065 1556.53 183.004 1570.89 194.942C1572.34 196.276 1575.2 196.276 1576.64 197.593L1598.18 217.502L1603.93 217.502C1601.07 216.167 1598.18 213.516 1595.32 212.2C1593.88 209.549 1591.01 206.898 1588.14 205.563C1585.28 200.261 1580.97 194.942 1582.39 188.306C1597.38 186.758 1613.35 189.711 1626.06 196.845C1619.49 185.085 1608.85 168.201 1597.63 164.073C1594.43 162.899 1592.61 160.515 1591.92 157.882C1571.61 143.204 1551.01 129.38 1532.14 113.99C1499.12 94.0812 1470.42 68.8705 1437.4 47.6273C1428.78 43.642 1423.05 38.3401 1414.43 35.6892L1410.13 31.7039C1395.78 25.0676 1382.85 19.7657 1368.51 13.1294C1365.64 11.7951 1364.2 13.1294 1361.33 11.7951C1357.02 10.4607 1354.16 7.80973 1349.85 6.49314C1345.54 6.49314 1341.23 5.15879 1336.93 2.50785C1312.52 -0.143094 1288.11 -1.47751 1263.73 2.50784C1227.84 9.1441 1193.39 18.4313 1158.94 31.7038C1156.08 33.0382 1154.64 31.7038 1151.77 33.0382C1108.71 51.6126 1068.51 72.8558 1032.62 102.052C1031.18 103.386 1029.76 106.037 1028.32 107.354C1024.01 110.005 1021.14 112.656 1016.83 115.324C995.294 133.899 976.638 152.491 956.539 171.065C924.959 202.912 894.821 234.759 861.799 267.941C858.933 270.592 856.049 273.243 851.759 275.911C843.143 285.199 833.103 293.169 824.487 303.773C817.313 306.424 813.004 313.06 805.83 315.711C754.152 360.831 695.3 399.314 627.831 421.874C561.805 436.48 484.279 433.812 426.281 398.46L426.423 398.709C412.502 387.358 393.828 383.372 376.614 375.42C373.748 374.085 370.864 371.434 367.998 370.118C362.248 363.481 356.516 359.496 350.766 354.194C345.016 348.892 337.842 351.543 332.11 348.892C323.494 339.605 313.454 332.969 301.972 326.333C297.664 323.682 296.222 321.031 293.356 317.045C276.124 306.424 263.217 290.5 248.851 277.228C243.102 266.606 231.62 257.319 220.137 253.334C211.521 253.334 202.905 257.319 194.307 258.636C192.865 258.636 191.441 259.97 189.999 261.287C188.557 261.287 185.691 261.287 184.249 262.621C172.767 269.257 161.285 266.606 149.803 265.272C115.357 257.301 80.8927 246.697 45.0222 240.061C34.9644 240.061 22.0581 236.076 13.4422 242.712C6.26809 240.061 0.51809 242.712 -7.19004 243.94C-13.8301 246.021 -20.2921 249.348 -26.7541 251.999C-29.6201 253.334 -31.062 251.999 -33.9281 253.334C-58.3342 265.272 -79.8564 279.879 -101.396 297.137C-102.838 298.471 -105.704 298.471 -107.146 299.788C-130.111 319.696 -151.65 338.271 -174.615 356.845C-186.097 368.783 -199.021 378.071 -211.945 390.026C-213.387 391.361 -216.253 391.361 -217.695 392.677C-218.62 393.46 -193.395 427.762 -226.56 465.232C-256.894 499.48 -229.835 507.469 -204.717 515.457ZM1270.19 10.0159C1271.52 11.6705 1273.21 13.3607 1273 13.5564C1269.44 18.5203 1265.15 14.8552 1265.15 12.0085C1266.57 11.795 1269.44 11.4214 1270.19 10.0337L1270.19 10.0159ZM625.126 482.347C625.677 482.08 626.211 481.813 626.763 481.582C626.639 481.689 626.692 481.778 626.799 481.849C624.876 481.689 624.538 484.518 622.046 483.272C622.046 482.276 623.488 482.507 625.108 482.347L625.126 482.347ZM215.171 293.934C209.029 300.695 202.389 306.566 195.286 311.957C188.183 317.366 180.653 322.33 172.767 327.276C171.325 326.92 169.901 326.564 168.459 326.226C169.901 320.266 172.767 315.925 177.075 311.939C178.517 311.032 179.941 310.142 181.383 309.253C185.691 304.04 190.355 299.254 195.66 295.589C200.965 291.924 206.911 289.397 213.764 288.686C214.423 291.052 215.402 293.276 215.171 293.934ZM139.727 332.969C151.209 315.711 164.133 301.122 175.615 283.864C187.097 271.926 202.888 263.955 220.12 265.29C230.16 269.275 234.468 277.228 235.91 286.515C232.492 295.998 225.905 303.381 218.179 310.071C225.211 302.35 230.409 293.596 231.602 282.53C228.736 266.606 208.638 269.257 197.155 274.559L195.714 277.21C177.057 287.832 165.575 303.755 154.093 319.679C152.651 330.3 145.477 336.936 141.169 346.224C141.169 351.526 141.169 358.162 146.919 362.147C160.68 358.34 169.171 347.22 180.76 341.527C180.725 341.544 180.689 341.58 180.653 341.598C171.307 352.842 159.825 362.147 145.477 367.449C142.611 366.115 138.303 364.798 136.861 362.147C132.553 352.86 136.861 342.238 139.727 332.951L139.727 332.969Z" fill="white"/>
<path d="M801.488 394.013C807.238 388.711 812.97 383.392 820.144 380.741C833.068 368.803 847.416 355.53 858.898 342.258C870.38 334.287 880.438 325 890.478 314.396L896.228 314.396C893.362 321.032 887.612 327.668 881.88 331.654C881.88 334.305 880.438 336.956 877.572 338.29C866.09 339.624 853.166 350.228 857.474 360.85C867.514 355.548 877.572 348.912 890.496 350.228C890.496 358.199 891.938 366.152 896.246 372.788C900.554 380.759 907.728 380.759 916.344 382.075C947.924 376.773 978.062 363.501 1005.35 347.577C1009.66 346.243 1015.39 343.592 1019.7 342.275C1024.01 339.624 1028.32 336.973 1032.62 335.639C1036.93 332.988 1039.8 330.337 1044.11 327.668C1046.97 327.668 1048.41 327.668 1051.28 326.334C1079.99 313.062 1110.13 303.774 1141.71 298.472C1167.54 297.138 1194.83 294.487 1220.66 289.185C1239.32 289.185 1256.55 286.534 1275.21 286.534C1283.82 289.185 1292.44 289.185 1301.06 289.185C1302.6 289.541 1304.15 290.004 1305.72 290.502C1287.47 290.395 1270.56 287.886 1252.26 289.185C1236.47 290.52 1222.12 293.171 1207.76 297.156C1208.72 298.045 1209.67 298.929 1210.62 299.807C1213.49 299.807 1216.37 297.156 1219.24 295.821C1252.26 293.171 1283.84 289.185 1316.85 294.487C1346.98 303.774 1375.7 311.745 1402.97 330.319C1405.84 331.654 1407.28 331.654 1409.52 333.38C1415.56 336.92 1421.63 340.443 1427.68 343.93C1441.44 351.847 1455.18 359.658 1468.69 367.824C1471.1 366.703 1473.25 365.173 1475.16 363.341C1474.14 362.771 1473.11 362.184 1472.09 361.615C1473.22 362.077 1474.28 362.611 1475.35 363.163C1479.14 359.426 1481.9 354.534 1483.43 349.534C1489.81 328.825 1478.22 311.46 1461.25 301.782C1456.71 299.842 1452.21 297.85 1447.74 295.804C1442.24 293.26 1442.38 286.855 1445.41 282.745C1438.82 277.816 1432.18 272.906 1425.51 268.031C1420.11 264.099 1414.68 260.203 1409.24 256.413C1395.78 245.365 1379.99 238.746 1365.64 228.124C1348.41 222.823 1334.06 212.201 1315.4 212.201C1299.61 204.23 1280.96 201.579 1263.73 194.943C1260.86 193.609 1260.86 189.641 1260.86 186.972C1269.48 176.351 1280.96 171.049 1295.31 168.398C1296.75 168.398 1298.17 167.064 1299.61 165.747C1321.15 164.413 1342.68 156.46 1365.64 161.762C1375.68 157.776 1385.74 155.126 1397.22 152.475C1390.05 143.187 1390.05 132.566 1388.6 121.944C1398.64 119.293 1408.7 120.61 1418.74 120.61C1420.19 117.959 1417.3 113.974 1417.3 111.323C1395.76 95.3992 1377.1 76.8247 1355.58 60.9012C1308.21 35.6905 1247.92 42.3268 1200.55 63.5522C1196.24 64.8865 1191.93 64.8865 1187.62 66.2031C1147.43 86.1119 1101.5 99.3844 1067.05 128.58C1064.19 129.915 1059.88 131.231 1057.01 133.882C1034.05 152.457 1013.95 171.049 992.411 189.623C988.103 196.26 982.371 198.911 978.063 205.547C947.924 230.758 927.826 261.288 899.112 289.15C897.67 290.484 899.112 291.801 897.67 293.135C880.438 311.709 866.09 327.633 847.434 344.891C844.568 347.542 843.126 351.527 840.26 354.178C824.47 367.45 811.546 383.374 795.755 396.646C797.197 395.312 800.064 395.312 801.505 393.995L801.488 394.013ZM1400.19 318.257C1399.78 317.687 1407.87 322.544 1400.05 318.613L1400.19 318.257ZM1379.44 308.151C1379.19 307.955 1378.96 307.76 1378.72 307.546C1378.17 307.884 1379.49 300.857 1379.44 308.151ZM1343.34 299.664C1343.78 299.771 1344.15 299.825 1344.55 300.002C1344.55 300.127 1345.51 301.195 1345.51 301.195C1344.14 300.91 1342.77 300.625 1343.35 299.664L1343.34 299.664ZM1328.31 294.469L1328.31 297.12C1326.87 295.786 1326.87 294.469 1325.44 294.469L1328.31 294.469ZM1311.51 292.459C1310.38 292.21 1309.28 291.854 1308.21 291.32C1309.32 291.694 1310.42 292.085 1311.51 292.459ZM1343.76 76.54C1343.76 77.5008 1343.98 78.4971 1344.42 79.529C1344.15 80.7923 1344.19 81.5929 1343.85 81.9843C1342.32 83.461 1342.3 84.9021 1339.54 84.3505C1336.82 79.5112 1338.24 73.9959 1343.76 76.5223L1343.76 76.54ZM1303.89 282.175C1304.06 282.086 1305.47 283.421 1305.47 283.421C1301.31 284.577 1301.31 281.997 1299.69 281.197C1301.95 281.695 1302.93 281.837 1303.9 282.175L1303.89 282.175ZM1292.92 280.699C1291.51 280.716 1290.13 280.752 1289.34 280.627C1288.56 280.272 1287.79 279.916 1287.03 279.56C1290.13 278.154 1291.51 280.716 1292.92 280.681L1292.92 280.699ZM1276.1 278.973C1275.16 279.056 1274.42 279.068 1273.89 279.008C1273.05 278.564 1272.2 278.101 1271.35 277.656C1273.3 277.941 1274.71 277.816 1276.12 278.973L1276.1 278.973ZM1261.04 246.361C1260.61 245.453 1262.03 245.24 1263.44 245.044C1264.85 246.183 1267.68 247.126 1267.68 249.777C1264.85 251.449 1262.02 251.841 1262.02 255.79C1260.61 254.687 1260.61 252.054 1259.03 251.307C1259.72 249.457 1260.06 247.606 1261.04 246.361ZM1116.7 101.502C1117.13 104.259 1115.79 103.245 1115.08 103.032C1115.81 102.267 1116.22 101.768 1116.7 101.502ZM1133.08 129.915C1134.52 127.264 1135.95 123.279 1138.83 120.628L1143.14 116.642C1146 108.672 1156.06 102.035 1151.75 94.0826C1143.14 94.0826 1134.52 96.7335 1125.92 98.0678C1144.58 88.7806 1164.68 82.1444 1186.22 78.1591C1187.66 79.4934 1189.08 79.4934 1189.08 80.81L1189.08 83.461C1183.33 88.7629 1180.47 96.7335 1173.29 100.719L1168.99 108.689C1163.24 112.675 1161.81 117.977 1157.5 123.296L1153.2 127.282C1143.16 145.856 1133.1 168.416 1146.02 187.008C1148.89 189.659 1151.77 192.31 1153.2 196.295L1161.81 204.266C1164.68 206.917 1161.81 209.568 1164.68 212.237C1163.24 226.843 1160.37 241.433 1166.12 256.039C1179.04 274.614 1204.87 277.265 1226.47 277.585C1233.3 277.176 1239.36 276.945 1245 276.873C1252.24 277.283 1257.99 275.948 1265.17 278.617C1246.51 277.283 1227.84 279.951 1209.18 279.951C1197.7 277.3 1186.22 278.617 1176.16 274.649C1173.29 271.999 1170.41 270.664 1166.12 270.664C1151.77 261.377 1146.02 245.453 1141.71 230.847C1135.96 220.225 1124.48 213.589 1114.44 206.952C1092.9 183.058 1114.44 149.895 1133.1 129.986L1133.08 129.915Z" fill="white"/>
<path d="M1360.73 272.568C1360.78 272.568 1360.75 272.266 1360.73 272.568V272.568Z" fill="white"/>
<path d="M442 596.481C441.893 596.446 441.804 596.41 441.697 596.375C441.751 596.446 441.804 596.499 441.858 596.57L442 596.481Z" fill="white"/>
<path d="M241.66 416.573L260.316 433.831C264.624 433.831 267.49 428.529 271.798 432.497L317.727 474.965C319.169 476.299 320.593 478.95 320.593 481.601C332.075 488.238 337.825 500.176 347.865 508.146C372.271 541.328 402.409 569.189 435.431 594.4C438.173 594.4 439.615 595.61 441.698 596.375C441.181 595.717 441.164 595.61 441.164 594.4C429.681 589.098 422.507 579.793 412.449 573.175C405.275 563.888 398.101 557.251 389.485 549.281C383.735 541.31 378.003 534.674 373.695 526.721C383.735 536.008 392.351 546.63 399.525 557.251C403.833 561.237 409.566 565.222 412.449 557.251C419.623 563.888 426.797 575.826 436.855 569.189C448.338 569.189 458.396 575.826 471.302 573.175C477.052 571.84 475.61 566.538 481.342 565.204C489.958 563.87 499.998 567.855 508.614 566.538C511.48 565.204 510.056 562.553 511.48 561.237C520.096 561.237 527.27 558.586 535.886 558.586C541.636 553.284 551.676 551.949 558.85 554.6C563.158 553.266 566.024 551.949 568.891 549.298C580.373 549.298 590.431 546.647 600.471 543.997C600.471 541.346 597.605 541.346 597.605 538.695C596.163 537.36 593.297 537.36 591.855 536.044C577.506 520.12 554.525 524.106 534.444 520.12C534.444 518.786 534.444 517.469 533.002 517.469C538.752 517.469 544.484 520.12 550.234 518.804C537.31 513.502 524.404 514.818 510.038 512.167C494.248 509.516 478.458 505.531 464.11 500.229C439.704 489.608 416.74 477.669 393.775 465.731C366.503 448.473 340.655 431.233 314.825 413.976C307.651 409.99 301.901 407.339 294.727 403.354L290.419 399.369C286.111 399.369 283.245 396.718 278.937 395.383C261.705 382.111 240.183 375.474 218.643 372.824C199.986 370.173 184.196 382.111 166.964 386.096C156.924 384.762 148.308 388.747 139.692 384.762C135.384 378.125 129.652 374.14 125.344 367.504C119.594 364.853 115.304 366.169 109.554 366.169C99.5137 376.791 82.2817 379.442 75.1076 392.715L75.1076 395.365C79.4157 396.7 80.8575 395.365 82.2816 392.715C88.0316 391.38 92.3218 391.38 98.0717 388.729L105.246 388.729C106.688 388.729 109.554 386.078 110.996 386.078L119.612 386.078C144.018 399.351 174.156 398.016 200.004 391.38C202.87 392.715 207.178 394.031 210.044 395.365C218.66 404.653 230.142 409.972 241.624 416.591L241.66 416.573ZM470.501 536.826C472.263 536.435 473.563 536.044 475.04 535.919C475.628 537.04 475.628 538.019 477.069 538.285C468.453 541.541 472.761 536.488 470.501 536.844L470.501 536.826ZM507.742 534.247C509.949 534.709 511.605 536.755 511.088 538.41C510.554 540.1 506.816 541.47 503.843 540.669C503.398 540.189 502.241 539.353 502.01 538.588C501.244 536.079 504.715 533.624 507.742 534.247ZM331.63 476.157C338.021 480.427 342.364 487.259 346.779 493.878C345.64 492.881 344.287 491.885 342.133 490.889C338.893 485.782 335.261 480.89 331.345 476.139C331.434 476.139 331.541 476.157 331.612 476.139L331.63 476.157ZM294.762 437.798C303.539 446.926 313.152 455.288 321.679 465.233C311.514 454.54 300.139 444.506 288.639 434.543C290.401 435.895 292.359 437.051 294.78 437.798L294.762 437.798ZM256.079 414.011C255.599 413.424 255.261 412.997 254.94 412.588C255.528 412.588 258.536 411.129 256.079 414.011ZM214.388 388.302C217.254 389.032 220.138 389.779 223.004 391.718C225.87 397.251 233.044 394.351 234.646 399.351C237.495 401.343 240.343 403.318 243.191 405.382C243.102 405.329 251.718 408.798 243.102 406.521C233.062 400.329 223.004 394.138 214.388 388.32L214.388 388.302Z" fill="white"/>
<path d="M429.326 627.473C425.57 624.983 421.831 624.983 418.075 623.719C424.324 627.473 431.818 631.21 439.313 633.701L443.069 633.701C446.825 636.191 450.563 636.191 454.408 637.01C454.889 636.903 454.462 636.458 453.038 635.622C446.024 631.477 437.871 629.004 429.664 625.605C430.732 626.335 431.836 627.029 433.082 627.456L429.326 627.456L429.326 627.473Z" fill="white"/>
<path d="M595.486 627.473C595.486 627.473 595.397 627.402 595.344 627.349C595.308 627.491 595.273 627.616 595.219 627.74L595.486 627.473Z" fill="white"/>
<path d="M373.606 602.601C380.086 602.886 386.405 603.544 392.476 605.395C392.262 605.252 392.049 605.128 391.835 605.003C385.765 602.975 379.676 602.601 373.606 602.619L373.606 602.601Z" fill="white"/>
<path d="M382.098 604.737C383.272 605.252 384.679 605.466 386.05 605.697C384.768 605.306 383.45 604.986 382.098 604.737Z" fill="white"/>
<path d="M424.074 622.582C423.896 622.493 423.593 622.475 423.077 622.475C423.415 622.475 423.754 622.511 424.074 622.582Z" fill="white"/>
<path d="M363.673 745.682C405.916 743.084 448.142 738.209 490.385 732.552C491.631 732.391 492.877 732.214 494.106 732.053C520.523 728.62 548.009 726.111 574.249 718.621C589.238 717.375 604.227 712.376 620.48 712.376C624.236 709.885 630.467 711.131 633.938 709.031C635.131 708.729 636.323 708.408 637.516 708.088C636.252 708.284 634.988 708.48 633.724 708.675C620.498 709.867 606.755 712.376 593.012 712.376C578.023 716.13 564.28 718.621 549.291 722.357C529.3 727.356 509.308 727.356 489.139 730.612C487.875 730.772 486.594 730.95 485.33 731.11C445.952 736.199 406.433 740.06 366.61 741.412C365.328 741.447 364.047 741.501 362.747 741.536C348.132 742.337 334.389 734.847 323.156 724.866C318.154 723.62 314.416 719.866 309.413 719.866C308.167 718.621 306.921 717.375 305.657 717.375C298.163 716.13 291.914 716.13 284.42 718.621C281.928 716.13 279.418 718.621 276.925 717.375C268.185 719.866 259.426 721.129 249.44 723.62L243.191 723.62C218.198 729.865 193.222 722.375 168.495 728.442C167.356 728.442 166.234 728.406 165.113 728.371C150.622 727.855 137.2 724.172 122.549 720.471C115.375 717.82 108.557 714.173 101.917 710.348C95.277 706.54 88.815 702.555 82.353 699.228C59.3889 681.97 45.0229 658.094 26.3667 636.851C23.5006 630.214 17.7507 624.912 17.7507 616.942C19.1926 615.607 20.6167 614.291 22.0764 612.992C23.5362 611.693 25.0138 610.43 26.5803 609.202C42.0322 596.25 63.2696 591.251 82.0148 597.496C85.7709 598.741 88.2631 601.25 92.0015 602.495C108.237 604.986 121.979 613.739 136.986 618.721C138.232 619.966 139.479 622.475 141.989 623.72C143.235 624.966 144.481 624.966 145.745 624.966C155.732 636.21 169.474 644.946 178.233 657.435C191.976 668.68 206.965 681.152 224.464 686.151C235.714 686.151 245.701 686.151 256.952 684.906C263.2 682.415 266.939 678.661 273.187 676.17C288.176 661.189 301.919 643.7 314.416 626.229C320.664 623.738 325.666 622.475 331.915 619.984C351.906 619.984 370.651 614.985 390.642 618.739C424.377 632.474 459.357 646.209 495.583 651.208C496.829 647.454 500.586 652.454 501.832 648.718C464.359 636.228 425.623 623.738 391.889 602.513C364.403 596.268 335.671 598.759 308.185 598.759C296.934 601.25 286.948 607.494 275.697 610.003L274.451 608.758C276.943 602.513 281.945 598.777 286.948 593.777C289.44 593.777 291.95 592.532 293.196 590.023C301.937 586.269 310.695 585.024 319.436 585.024C340.673 590.023 363.157 587.515 384.412 590.023C389.414 591.269 393.152 593.777 398.155 595.023C399.401 597.513 401.911 598.777 404.403 598.777C428.133 616.266 458.129 623.756 485.614 634.982C497.363 638.505 510.216 638.719 523.14 638.737C529.389 638.737 536.865 637.491 543.096 636.246C555.593 632.492 566.826 628.755 579.322 626.265C584.253 625.037 591.641 623.809 595.433 627.385C595.522 627.047 595.575 626.674 595.575 626.265C593.083 622.511 586.835 623.774 583.079 623.774C571.828 627.528 560.595 630.019 549.344 633.755C545.588 633.755 541.85 635 538.094 636.246C525.597 637.491 514.364 637.491 501.867 637.491C463.131 627.51 425.658 611.266 391.924 590.041C386.922 588.795 383.184 588.795 378.181 586.287C356.944 586.287 334.46 583.796 313.205 580.042C303.218 580.042 294.46 582.533 285.719 585.041C274.469 592.532 260.726 597.531 248.247 603.776C234.504 612.512 236.996 630.001 247.001 639.982C270.73 649.963 286.983 622.493 301.972 608.758C308.221 603.758 316.961 605.004 324.456 602.513C338.288 603.438 352.12 603.669 365.952 603.74C369.298 603.385 372.556 603.42 375.707 603.758C377.362 603.758 379.018 603.758 380.673 603.758C381.101 604.185 381.617 604.505 382.169 604.755C383.504 605.004 384.821 605.324 386.121 605.715C387.848 606 389.521 606.356 390.678 607.512C389.2 606.783 387.687 606.196 386.121 605.715C384.75 605.484 383.362 605.288 382.169 604.755C381.386 604.612 380.62 604.488 379.819 604.381C395.894 607.477 409.761 617.903 424.394 623.738C424.394 623.009 424.394 622.724 424.145 622.582C423.825 622.528 423.486 622.475 423.148 622.475C423.682 622.475 423.967 622.475 424.145 622.582C424.216 622.582 424.305 622.6 424.377 622.617C414.141 616.497 402.445 611.853 392.547 605.395C386.495 603.545 380.157 602.904 373.677 602.602C364.759 602.602 355.84 603.474 346.939 601.25C355.947 602.442 364.955 602.21 373.677 602.602C379.748 602.602 385.836 602.975 391.906 604.986C392.12 605.128 392.334 605.253 392.547 605.377C395.307 606.213 398.012 607.299 400.665 608.722C419.41 621.212 440.647 629.947 461.885 637.438C464.377 638.683 466.887 639.929 469.379 642.437C443.14 638.683 419.41 627.457 395.663 617.458C390.66 614.967 385.676 614.967 380.673 613.704C356.944 614.949 333.196 611.213 310.713 619.949C299.462 633.684 289.476 648.664 273.24 659.908C273.24 659.908 271.994 661.154 271.994 662.399C265.746 666.153 260.744 668.644 254.495 671.135C240.752 672.38 228.255 668.644 217.023 659.891C215.777 654.891 210.774 654.891 208.282 651.155C207.036 648.664 204.526 646.156 203.28 643.665L200.788 642.419C189.537 624.93 182.042 608.704 170.809 592.478C163.315 574.989 147.08 565.008 134.583 552.518C130.827 546.274 125.842 541.274 123.332 535.029C112.082 520.049 102.095 503.805 98.3389 485.088C95.8466 485.088 94.5827 482.597 92.0905 483.843C92.0905 482.597 90.8444 482.597 90.8978 481.441C90.4528 480.498 90.0433 479.573 89.6695 478.63C86.7322 471.157 86.7321 463.507 86.7321 455.02C92.4465 437.852 91.0581 419.384 96.7012 402.197C97.5022 402.162 98.0362 401.859 97.6446 400.649L97.5556 400.471C97.5556 400.471 97.5556 400.489 97.5022 400.365C96.7723 401.005 96.7724 401.005 95.3482 402.09C91.7879 402.802 89.0998 405.916 85.2724 405.916C63.7324 424.49 43.6521 443.082 23.554 462.973C22.1121 469.61 16.38 476.246 20.688 484.199C27.8621 488.184 33.612 480.213 40.786 481.548C37.9199 490.835 33.612 498.806 26.4379 505.798C19.2638 512.078 9.93575 516.063 -0.834269 516.063C-10.8744 524.034 -22.3743 522.7 -32.4145 522.7C-42.4546 524.034 -52.5126 529.336 -59.6866 537.289C-56.8205 541.274 -52.5126 542.591 -49.6465 546.576C-42.4724 570.47 -26.6823 591.695 -10.8922 611.604C-0.852041 628.862 7.76392 646.102 20.688 662.026C32.1701 672.647 45.0941 681.934 53.7101 695.207C60.8842 703.178 70.9421 708.48 80.9822 712.465L85.2902 716.45C92.1083 718.781 99.0153 721.005 106.011 723.086C113.007 725.168 120.093 727.072 127.267 728.726C141.259 731.057 155.625 735.025 171.415 735.025C172.483 734.615 173.569 734.188 174.69 733.779C177.058 732.32 179.55 731.075 182.042 731.075C208.282 728.584 235.768 732.32 260.761 722.339C272.012 722.339 281.999 721.094 293.249 723.585C298.252 727.339 303.236 728.584 308.238 731.075L318.225 731.075C330.722 736.074 341.955 746.055 356.801 745.878C357.923 745.878 359.08 745.86 360.255 745.806C361.43 745.771 362.587 745.717 363.762 745.646L363.673 745.682ZM29.4464 469.058C33.5052 469.787 37.8132 475.125 33.5942 479.519C31.6182 474.538 30.5323 471.798 29.4464 469.058ZM62.2192 490.159C62.2192 488.842 62.2193 487.543 63.412 486.494C63.8927 487.526 64.6582 488.682 64.5514 489.002C65.0854 490.248 63.6433 490.212 62.2192 490.159ZM16.6826 599.061C16.6292 597.104 17.1276 594.987 17.9642 592.941C18.801 590.895 19.9937 588.902 21.3466 587.194C22.7174 585.486 24.3016 584.01 25.8682 583.049C27.4348 582.088 28.9658 581.643 30.1585 582.052C32.0098 583.778 34.502 585.024 35.7481 587.532C31.992 591.286 27.0075 596.268 21.5424 598.545C19.9759 599.043 18.356 599.239 16.6648 599.079L16.6826 599.061Z" fill="white"/>
<path d="M429.664 625.623C427.884 624.395 426.246 623.043 424.306 622.616C425.587 623.381 426.851 624.164 428.08 624.965C428.614 625.196 429.13 625.41 429.664 625.623Z" fill="white"/>
<path d="M365.88 603.723C365.791 603.723 365.702 603.723 365.613 603.741C370.402 603.741 375.173 603.741 379.765 604.363C378.412 604.096 377.024 603.901 375.635 603.741C372.378 603.741 369.138 603.741 365.88 603.723Z" fill="white"/>
<path d="M590.484 632.475L592.478 630.482C591.695 631.016 590.929 631.585 590.484 632.475Z" fill="white"/>
<path d="M595.22 627.741L592.478 630.48C593.564 629.751 594.721 629.057 595.22 627.741Z" fill="white"/>
<path d="M568.926 516.08C569.175 516.044 569.442 516.009 569.692 515.973C569.407 515.973 569.122 515.973 568.819 515.973L568.926 516.08Z" fill="white"/>
<path d="M1168.97 309.075C1168.68 309.11 1168.38 309.164 1168.08 309.217C1168.31 309.413 1168.59 309.431 1168.97 309.075Z" fill="white"/>
<path d="M65.37 737.96C65.4947 738.067 65.6015 738.156 65.7261 738.263C65.8151 738.245 65.9042 738.245 65.9932 738.227C65.9398 738.174 65.8863 738.138 65.8329 738.085C65.6727 738.049 65.5303 738.014 65.37 737.96Z" fill="white"/>
<path d="M50.7374 725.79C46.4294 720.488 39.2554 723.139 33.5054 720.488C20.5814 711.201 6.23325 701.914 6.23325 685.99L3.36709 685.99C4.80903 697.928 -0.940854 708.55 -3.80693 719.172C-0.940855 717.837 1.94295 715.186 4.80902 713.87C19.1572 716.521 34.9473 721.84 46.4294 731.128C52.0369 735.024 59.0152 736.376 65.3704 737.995C60.4393 733.725 53.5323 732.302 50.7374 725.808L50.7374 725.79Z" fill="white"/>
<path d="M749.809 585.113C748.367 586.448 745.501 589.099 745.056 591.572C745.626 593.155 745.644 594.098 746.178 594.507C749.809 595.735 752.693 601.037 757.001 602.371C761.309 601.037 762.751 597.069 765.617 593.084C764.175 585.113 755.577 586.448 749.827 585.113L749.809 585.113Z" fill="white"/>
<path d="M1170.41 364.817C1168.97 371.453 1173.28 376.755 1179.03 379.424C1184.78 378.089 1190.51 376.773 1189.3 370.226C1188.28 364.212 1185.38 362.006 1180.38 363.056C1177.58 362.166 1173.29 366.151 1170.41 364.817Z" fill="white"/>
<path d="M183.288 747.194C172.198 751.019 160.627 751.339 148.985 750.841C137.218 750.343 125.362 749.008 113.88 749.685C123.92 751.019 133.622 751.677 143.306 752.175C156.835 749.702 172.483 758.812 183.271 747.212L183.288 747.194Z" fill="white"/>
<path d="M183.556 746.926C183.467 747.015 183.377 747.104 183.288 747.193C183.413 747.158 183.538 747.104 183.662 747.069L183.538 746.926L183.556 746.926Z" fill="white"/>
<path d="M525.472 568.904C526.327 569.633 527.288 570.932 528.16 571.074C533.056 571.252 537.364 572.195 538.788 569.527C537.346 567.214 534.48 564.563 531.614 562.873C527.306 563.869 527.306 565.897 525.472 568.904Z" fill="white"/>
<path d="M1417.67 86.45C1422.69 92.7482 1427.36 99.3845 1433.11 104.704C1435.92 107.302 1438.72 108.618 1441.56 109.17C1435.16 102.854 1429.46 95.1679 1423.09 88.0512C1416.61 80.8101 1409.43 74.1916 1400.09 70.2775C1407.26 74.1916 1412.65 80.1518 1417.67 86.45Z" fill="white"/>
<path d="M542.58 581.252C538.556 580.576 535.584 581.946 535.708 584.348C535.833 586.643 538.129 587.426 540.621 587.853C544.306 588.493 547.261 587.034 547.137 584.65C547.012 582.373 544.716 581.679 542.597 581.234L542.58 581.252Z" fill="white"/>
<path d="M990.132 540.402C990.132 540.402 990.132 540.297 990.114 540.226C990.061 540.226 990.026 540.262 989.973 540.279L990.132 540.402Z" fill="white"/>
<path d="M990.113 540.225C995.383 538.534 1000.99 531.987 996.718 526.721C988.191 526.721 989.508 534.531 990.113 540.225Z" fill="white"/>
<path d="M456.473 716.254C454.426 716.165 452.432 718.336 452.557 720.489C452.682 722.57 454.569 723.958 457.292 723.994C460.319 724.029 463.149 722.232 462.953 720.4C462.811 719.048 458.574 716.343 456.473 716.236L456.473 716.254Z" fill="white"/>
<path d="M1053.77 387.609C1054.81 391.63 1056.43 392.679 1058.92 391.825C1061.46 390.936 1063.31 387.733 1062.57 385.349C1061.69 382.574 1059.58 381.755 1057.44 383.107C1055.82 384.122 1054.72 386.399 1053.77 387.626L1053.77 387.609Z" fill="white"/>
<path d="M505.374 717.785C505.57 716.059 504.003 714.778 502.027 714.867C500.407 714.938 499.054 716.183 497.025 717.18C498.592 718.745 499.304 720.026 500.532 720.525C502.259 721.236 505.178 719.439 505.374 717.785Z" fill="white"/>
<path d="M574.677 597.957C571.811 597.566 570.369 599.274 568.927 600.021C568.927 600.964 568.927 601.925 569.888 602.814C570.333 602.85 570.689 602.939 570.76 602.868C571.793 601.338 574.677 600.768 574.677 597.939L574.677 597.957Z" fill="white"/>
<path d="M775.996 563.531C774.821 565.701 773.788 567.587 772.845 569.491C772.791 569.598 774.215 570.416 774.215 570.416C778.523 569.206 777.082 566.573 778.523 564.652C778.523 563.744 777.081 563.851 775.996 563.531Z" fill="white"/>
<path d="M651.633 705.206L651.74 705.312C657.935 702.626 663.667 703.711 669.417 700.918C663.667 703.711 657.935 702.626 651.633 705.224L651.633 705.206Z" fill="white"/>
<path d="M624.094 486.991L624.218 487.098C624.503 486.938 624.806 486.831 625.091 486.688C624.752 486.795 624.414 486.884 624.094 486.991Z" fill="white"/>
<path d="M625.09 486.707C630.128 485.213 636.679 484.163 640.702 481.85C636.644 484.163 630.021 484.359 625.09 486.707Z" fill="white"/>
<path d="M640.72 481.85C641.949 481.565 642.963 481.209 643.889 480.818C642.785 481.174 641.717 481.512 640.72 481.85Z" fill="white"/>
<path d="M778.506 667.559C780.677 666.776 782.814 665.886 784.896 664.925C782.137 665.477 779.396 665.993 778.506 667.559Z" fill="white"/>
<path d="M778.399 667.754C778.399 667.754 778.488 667.629 778.523 667.576C778.434 667.612 778.363 667.647 778.274 667.665L778.399 667.754Z" fill="white"/>
<path d="M556.394 580.931C556.572 580.664 555.664 579.917 554.899 578.885C553.955 579.775 553.172 580.237 552.94 580.86C552.834 581.145 553.884 581.785 554.418 582.266C555.112 581.839 556.038 581.501 556.412 580.931L556.394 580.931Z" fill="white"/>
<path d="M969.446 411.307C969.446 411.307 970.888 410.897 970.799 410.986C971.28 410.72 971.494 410.613 971.689 410.47C973.754 408.976 976.621 407.037 978.063 405.507C973.754 406.734 972.313 408.264 969.446 411.307Z" fill="white"/>
<path d="M652.202 705.383C646.452 705.241 642.162 706.077 638.548 707.821C638.192 707.91 637.854 707.999 637.498 708.105C637.89 708.052 638.281 707.981 638.673 707.928C643.604 706.131 647.894 705.277 652.202 705.401L652.202 705.383Z" fill="white"/>
<path d="M748.723 678.75L748.848 678.839C750.058 678.216 751.749 677.647 753.512 676.971C751.376 677.166 749.275 677.255 748.723 678.75Z" fill="white"/>
<path d="M758.425 674.569C757.001 675.547 755.221 676.312 753.512 676.971C755.595 676.775 757.713 676.455 758.425 674.569Z" fill="white"/>
<path d="M498.378 580.309C499.019 579.81 499.767 579.383 499.678 579.277C498.61 578.316 497.186 577.942 495.744 577.551C496.705 578.5 497.583 579.419 498.378 580.309Z" fill="white"/>
<path d="M65.9934 738.227C68.094 740.362 70.8888 740.38 73.7014 740.38C70.9422 739.099 68.183 737.853 65.9934 738.227Z" fill="white"/>
<path d="M1387.95 62.0742C1386.59 61.5405 1386.61 60.0637 1385.49 59.1564C1383.23 57.8754 1380.98 56.63 1378.74 55.4024C1381.16 58.0177 1383.87 60.5086 1387.95 62.0742Z" fill="white"/>
<path d="M1054.54 354.961C1055.34 355.21 1055.77 355.548 1056.05 355.388C1056.99 352.862 1061.3 354.196 1061.3 350.211C1059.86 352.862 1055.55 352.862 1054.54 354.961Z" fill="white"/>
<path d="M1089.16 336.706L1089.16 336.76C1087.82 337.187 1086.67 337.554 1085.71 337.863C1087.15 339.838 1090.02 337.685 1092.88 336.742C1092.88 333.059 1090.02 338.895 1089.16 336.689L1089.16 336.706Z" fill="white"/>
<path d="M190.089 741.465C192.171 740.682 194.29 740.219 194.29 737.835C194.058 738.049 193.845 738.244 193.631 738.44C192.314 739.65 191.264 740.575 190.089 741.482L190.089 741.465Z" fill="white"/>
<path d="M186.884 743.688C188.166 742.888 189.181 742.176 190.089 741.482C188.86 741.945 187.65 742.532 186.884 743.688Z" fill="white"/>
<path d="M186.635 744.045C186.706 743.92 186.795 743.796 186.866 743.671C186.742 743.742 186.635 743.814 186.51 743.903L186.635 744.045Z" fill="white"/>
<path d="M843.606 489.659C842.716 490.247 841.843 490.834 840.971 491.421C841.701 491.777 844.567 491.332 843.606 489.659Z" fill="white"/>
<path d="M455.547 603.99C454.159 602.816 452.752 601.66 449.655 600.912C451.346 602.407 452.788 603.563 455.547 603.99Z" fill="white"/>
<path d="M324.456 757.05C323.477 754.987 320.611 756.321 319.169 756.321C320.611 756.321 320.611 757.655 322.017 757.282C322.729 757.21 323.601 757.139 324.456 757.068L324.456 757.05Z" fill="white"/>
<path d="M78.5787 742.088C80.3054 742.462 81.4092 742.764 82.5129 742.924C82.3171 743.049 83.759 743.049 83.759 743.049C82.3171 741.714 79.451 741.714 78.5787 742.106L78.5787 742.088Z" fill="white"/>
<path d="M568.944 516.472C566.078 516.774 561.77 515.707 559.527 515.991C559.064 515.902 558.726 515.884 558.441 515.92C558.94 515.973 559.367 516.062 559.669 516.134C563.212 516.062 566.078 516.774 568.944 516.472Z" fill="white"/>
<path d="M868.849 476.406C870.398 475.961 870.398 474.965 871.822 474.68C870.38 474.947 868.956 475.214 867.888 476.086C868.369 476.246 868.636 476.495 868.849 476.388L868.849 476.406Z" fill="white"/>
<path d="M441.181 596.749C444.047 597.211 446.931 599.667 449.317 600.823C449.424 600.841 449.53 600.877 449.637 600.912C449.566 600.859 449.513 600.805 449.459 600.752C446.931 599.667 445.489 597.461 441.181 596.749Z" fill="white"/>
<path d="M1399.93 69.6181C1398.75 69.547 1396.08 66.896 1394.73 66.3267C1396.08 66.896 1398.77 69.5469 1400.07 69.8672L1399.94 69.6181L1399.93 69.6181Z" fill="white"/>
<path d="M90.6846 744.134C91.0229 744.365 91.361 744.739 91.7171 744.774C92.3579 744.365 90.9161 736.412 90.6846 744.134Z" fill="white"/>
<path d="M781.799 720.631C781.442 720.933 781.015 721.147 781.015 721.325C790.005 721.805 781.389 720.471 781.799 720.631Z" fill="white"/>
<path d="M948.886 571.572C948.921 571.483 948.939 571.394 948.975 571.305C948.886 571.376 948.814 571.43 948.725 571.501L948.886 571.59L948.886 571.572Z" fill="white"/>
<path d="M948.974 571.289C950.754 569.955 950.843 569.884 952.214 568.709C949.544 569.19 949.348 570.079 948.974 571.289Z" fill="white"/>
<path d="M544.36 515.797L544.484 515.939C545.357 515.69 546.193 515.744 547.048 515.886C546.193 515.708 545.303 515.637 544.36 515.797Z" fill="white"/>
<path d="M1147.93 316.514C1148.33 316.265 1148.73 316.033 1149.14 315.802C1148.73 315.695 1147.46 309.699 1147.93 316.514Z" fill="white"/>
<path d="M1113.6 329.234C1113.78 329.074 1113.96 328.896 1114.14 328.736C1114.42 328.558 1113 329.021 1113.6 329.234Z" fill="white"/>
<path d="M890.676 751.251C890.676 751.251 890.676 751.286 890.676 751.304C890.728 751.321 890.781 751.339 890.852 751.356L890.693 751.233L890.676 751.251Z" fill="white"/>
<path d="M887.612 752.816C888.075 753.154 888.395 753.029 888.662 752.745C888.324 752.78 887.968 752.798 887.612 752.816Z" fill="white"/>
<path d="M890.656 751.322C889.588 750.948 889.214 752.176 888.662 752.745C889.659 752.621 890.478 752.318 890.656 751.322Z" fill="white"/>
<path d="M589.043 492.934C590.484 492.24 591.909 491.564 593.742 491.421L593.582 491.279C591.926 491.546 589.06 490.905 589.06 492.934L589.043 492.934Z" fill="white"/>
<path d="M556.02 516.242C557.141 516.545 557.391 515.993 558.423 515.922C557.711 515.851 556.874 515.868 556.02 516.242Z" fill="white"/>
<path d="M1021.12 377.715C1019.81 378.124 1018.49 378.551 1018.28 379.797C1019.81 378.32 1021.12 379.957 1021.12 377.715Z" fill="white"/>
<path d="M1125.25 323.986C1125.02 324.057 1124.8 324.129 1124.57 324.217C1124.46 324.093 1125.89 331.067 1125.25 323.986Z" fill="white"/>
<path d="M1018.08 379.993L1018.24 380.1C1018.24 380.1 1018.24 380.189 1018.24 380.225C1018.24 380.189 1018.24 380.171 1018.24 380.1C1018.24 379.993 1018.26 379.887 1018.28 379.78C1018.24 379.815 1018.22 379.833 1018.19 379.869C1018.17 379.815 1018.13 379.815 1018.08 379.976L1018.08 379.993Z" fill="white"/>
<path d="M1006.1 387.02C1005.87 387.34 1005.65 387.66 1005.42 387.963C1005.32 388.354 1006.76 386.771 1006.1 387.02Z" fill="white"/>
<path d="M1043.93 362.86C1044.09 363.394 1052.7 359.444 1044.64 361.792C1044.41 362.148 1044.16 362.504 1043.93 362.86Z" fill="white"/>
<path d="M1057.32 450.039C1057.12 450.075 1056.94 450.11 1057.32 450.039V450.039Z" fill="white"/>
<path d="M998.961 391.879C999.015 392.057 999.086 392.377 999.104 392.377C999.584 392.377 999.584 391.238 998.961 391.879Z" fill="white"/>
<path d="M567.502 494.695C568.944 495.086 570.368 495.478 570.653 494.713L570.528 494.588C570.386 495.478 568.944 495.086 567.52 494.695L567.502 494.695Z" fill="white"/>
<path d="M1133.44 321.084C1141.7 318.629 1141.7 317.384 1132.92 320.746C1133.1 320.871 1133.29 321.12 1133.44 321.084Z" fill="white"/>
<path d="M933.701 434.399C933.701 434.577 933.718 434.933 933.754 434.915C942.174 432.869 942.174 431.802 933.701 434.399Z" fill="white"/>
<path d="M939.753 430.432C939.931 430.468 940.127 430.557 940.305 430.521C940.732 430.023 939.29 430.397 939.753 430.432Z" fill="white"/>
<path d="M630.663 501.509C620.623 504.16 610.565 506.811 600.524 510.797C589.327 510.797 579.501 514.569 569.692 515.974C579.554 516.027 589.327 514.889 599.083 518.767C626.355 537.342 662.243 537.342 695.265 534.691C730.833 528.464 766.401 519.853 800.241 507.274C800.081 507.968 799.939 509.035 799.903 510.494C800.419 510.388 800.811 510.37 801.167 510.21C801.256 508.662 801.203 507.594 801.078 506.954C817.474 500.816 833.477 493.77 848.858 485.586C886.74 463.364 923.5 439.097 960.101 414.687C959.869 415.541 959.62 417.142 959.851 416.857C959.994 416.928 960.172 417.124 960.296 417.071C960.403 415.665 960.439 414.882 960.403 414.491C995.829 390.864 1031.09 367.094 1067.05 344.926C1090.02 331.653 1117.29 325.017 1141.7 314.395C1150.03 311.833 1159.68 310.499 1168.08 309.218C1167.63 308.844 1167.37 307.866 1166.9 307.563C1178.12 304.966 1189.33 302.35 1200.55 298.454C1166.1 301.105 1134.52 314.378 1102.94 327.65C1100.08 328.984 1098.63 327.65 1095.77 328.984C1082.84 332.97 1071.36 340.923 1058.44 346.242C1032.61 363.5 1008.2 380.74 980.929 395.347C966.58 405.969 952.214 415.256 936.424 424.543C933.558 427.194 930.674 429.845 926.384 432.514C919.21 433.848 916.344 440.484 909.152 441.801C904.844 444.452 901.978 447.103 899.112 449.772C889.072 453.757 880.456 460.393 871.84 467.029C854.608 477.651 835.952 486.938 817.296 494.891C815.854 494.891 814.429 494.891 812.987 493.557C814.429 489.571 818.737 486.92 820.162 482.935C815.854 482.935 812.988 482.935 808.68 484.269C768.483 497.542 728.287 509.48 685.225 509.48C666.569 506.829 649.337 501.509 630.681 501.509L630.663 501.509Z" fill="white"/>
<path d="M954.19 421.34C954.386 421.215 954.599 421.091 954.795 420.966C955.08 420.788 953.656 421.18 954.19 421.34Z" fill="white"/>
<path d="M1115.29 461.674L1115.12 461.531C1114.89 461.585 1114.9 461.62 1114.99 461.638C1114.48 462.083 1113.98 462.545 1113.48 462.99C1114.08 462.545 1114.69 462.101 1115.29 461.674C1115.44 461.674 1115.51 461.674 1115.29 461.674Z" fill="white"/>
<path d="M1157.91 404.67C1157.91 404.67 1157.95 404.777 1157.97 404.812C1157.95 404.741 1157.91 404.67 1157.91 404.67Z" fill="white"/>
<path d="M1157.97 404.812C1158.04 405.026 1158 404.919 1157.97 404.812V404.812Z" fill="white"/>
<path d="M1228.91 389.761C1229.24 390.025 1229.07 389.797 1228.91 389.761V389.761Z" fill="white"/>
<path d="M884.888 466.585L885.333 466.265C884.764 466.069 884.764 467.084 884.888 466.585Z" fill="white"/>
<path d="M913.195 448.01C913.529 447.852 913.336 447.887 913.195 448.01V448.01Z" fill="white"/>
<path d="M993.603 402.25C993.835 402.054 993.835 400.916 993.692 401.289C993.657 401.681 993.621 401.965 993.603 402.25Z" fill="white"/>
<path d="M1026.57 374.655C1026.86 367.699 1025.43 375.207 1026.05 374.477C1026.23 374.549 1026.43 374.709 1026.57 374.655Z" fill="white"/>
<path d="M1156.92 312.421L1156.35 312.688C1156.04 312.919 1157.48 312.474 1156.92 312.421Z" fill="white"/>
<path d="M29.5711 792.687L29.8381 792.74C29.6067 792.58 29.393 792.42 29.5711 792.687Z" fill="white"/>
<path d="M30.0872 792.812L29.838 792.758C30.1051 792.954 30.372 793.167 30.0872 792.812Z" fill="white"/>
<path d="M597.64 490.3L597.569 490.176C596.234 490.478 594.792 490.176 593.35 490.869C594.792 491.19 596.216 490.478 597.64 490.3Z" fill="white"/>
<path d="M653.929 476.371C653.929 476.371 653.858 476.371 653.805 476.371C649.158 477.385 647.271 479.342 643.889 480.801C647.556 479.627 651.508 478.363 653.947 476.477C653.947 476.424 653.947 476.406 653.947 476.353L653.929 476.371Z" fill="white"/>
<path d="M653.929 476.371C655.069 476.282 655.122 475.375 656.511 475.482C655.122 475.375 653.751 475.268 653.929 476.371Z" fill="white"/>
<path d="M385.267 748.049C385.568 748.19 385.338 748.084 385.267 748.049V748.049Z" fill="white"/>
<path d="M424.341 740.932C424.165 740.967 423.99 740.932 424.341 740.932V740.932Z" fill="white"/>
<path d="M431.996 747.977L431.871 747.87C431.266 748.03 430.679 748.19 430.073 748.368C430.714 748.244 431.355 748.119 431.978 747.995L431.996 747.977Z" fill="white"/>
<path d="M791.571 400.187L791.714 400.258C792.889 399.404 794.313 398.087 795.755 396.771C794.313 398.087 792.889 399.404 791.571 400.169L791.571 400.187Z" fill="white"/>
<path d="M1358.72 46.0273C1359.12 45.5055 1359.01 45.3098 1358.4 45.4402C1358.5 45.636 1358.57 45.885 1358.72 46.0273Z" fill="white"/>
<path d="M669.773 701.22L669.915 701.327C670.859 700.936 672.3 699.993 673.742 700.011C672.3 699.993 670.876 700.936 669.791 701.22L669.773 701.22Z" fill="white"/>
<path d="M1365.5 47.7517C1365.55 47.9652 1365.52 47.8585 1365.5 47.7517V47.7517Z" fill="white"/>
<path d="M678.193 699.103C676.609 699.085 675.167 700.028 673.725 700.01C675.167 700.028 676.591 699.085 678.3 699.192L678.175 699.103L678.193 699.103Z" fill="white"/>
<path d="M678.032 699.103C679.474 699.103 680.898 698.178 682.465 698.089L682.34 698C680.916 698.178 679.474 699.121 678.032 699.103Z" fill="white"/>
<path d="M690.957 695.385C689.515 696.328 688.091 696.328 686.578 696.933C685.207 697.271 683.783 698.214 682.341 698.196C683.783 698.196 685.207 697.271 686.703 697.022C688.091 697.289 690.957 697.306 690.957 695.385Z" fill="white"/>
<path d="M690.957 696.346C692.399 695.403 693.823 695.403 695.336 694.851C698.131 693.499 701.015 693.499 703.881 692.538C701.015 693.499 698.131 693.499 695.211 694.744C693.841 694.442 690.975 694.424 690.975 696.346L690.957 696.346Z" fill="white"/>
<path d="M711.055 690.616C710.093 690.616 709.31 690.747 708.705 691.008C706.747 691.595 705.322 691.595 703.881 692.556C705.322 692.556 706.747 691.595 708.847 691.115C709.631 691.577 709.631 690.634 711.055 690.634L711.055 690.616Z" fill="white"/>
<path d="M732.043 684.301C731.153 684.71 729.729 685.671 728.287 685.688C729.729 685.671 731.153 684.692 732.168 684.39C733.823 683.767 735.159 683.678 736.44 682.966C738.007 682.664 738.309 681.988 739.182 681.774C738.22 681.952 737.295 682.415 736.6 682.717C734.019 682.824 733.93 683.731 732.008 684.301L732.043 684.301Z" fill="white"/>
<path d="M739.769 681.686C741.211 681.65 742.635 680.671 744.451 680.173C745.519 679.657 746.961 679.622 748.385 678.643C746.943 678.679 745.519 679.657 744.326 680.084C742.653 680.671 741.211 680.707 739.769 681.686Z" fill="white"/>
<path d="M765.902 672.416L766.044 672.522C767.041 672.38 769.907 672.256 769.907 670.37C768.465 671.366 767.041 671.419 765.884 672.398L765.902 672.416Z" fill="white"/>
<path d="M777.472 668.305C776.369 668.608 775.229 669.195 773.876 669.195L774.001 669.266C772.648 669.408 771.277 670.334 769.942 670.832L770.085 670.938C771.349 670.316 772.773 670.262 774.197 669.284C775.372 669.159 776.44 668.608 777.49 668.305L777.472 668.305Z" fill="white"/>
<path d="M1072.55 443.545L1072.77 443.474C1072.66 443.509 1072.59 443.527 1072.55 443.545Z" fill="white"/>
<path d="M795.755 660.62C794.331 660.709 792.889 661.724 791.18 662.275C791.269 662.115 791.376 661.973 791.447 661.795C789.275 662.862 787.104 663.912 784.914 664.908C787.549 664.392 790.183 663.823 791.18 662.275L791.323 662.364C792.889 661.706 794.313 661.617 795.755 660.603L795.755 660.62Z" fill="white"/>
<path d="M808.341 655.105C807.255 655.301 807.184 656.155 805.814 656.262C807.184 656.173 808.537 656.066 808.341 655.105Z" fill="white"/>
<path d="M808.305 654.963C808.305 654.963 808.305 655.052 808.323 655.088C808.376 655.088 808.412 655.07 808.447 655.052L808.305 654.946L808.305 654.963Z" fill="white"/>
<path d="M821.568 649.252C823.027 648.434 824.469 648.309 825.894 647.259C824.452 648.309 823.028 648.434 821.408 649.145L821.55 649.252L821.568 649.252Z" fill="white"/>
<path d="M1054.45 496.492C1055.55 496.35 1055.62 495.354 1057.01 495.033C1055.66 495.354 1054.34 495.692 1054.45 496.492Z" fill="white"/>
<path d="M1054.47 496.635C1054.47 496.635 1054.47 496.529 1054.45 496.476C1054.4 496.476 1054.36 496.494 1054.31 496.494L1054.48 496.617L1054.47 496.635Z" fill="white"/>
<path d="M833.156 643.399C833.121 643.541 833.067 643.683 833.067 643.861C834.509 642.794 835.933 642.669 837.09 641.477C838.23 640.849 839.28 640.173 840.241 639.449C839.28 640.161 838.176 640.801 836.93 641.371C836.022 641.673 833.583 641.922 833.138 643.381L833.156 643.399Z" fill="white"/>
<path d="M844.692 637.33C843.125 638.237 841.683 638.38 840.259 639.447C841.701 638.38 843.125 638.237 844.834 637.419L844.709 637.33L844.692 637.33Z" fill="white"/>
<path d="M848.715 635.444L848.626 635.391L848.555 635.355C847.416 635.96 845.974 636.085 844.532 637.17C845.974 637.028 847.398 635.96 848.697 635.444L848.715 635.444Z" fill="white"/>
<path d="M860.144 629.148C858.915 630.091 857.473 630.233 856.032 631.336C858.898 631.033 858.898 630.091 860.286 629.254L860.126 629.165L860.144 629.148Z" fill="white"/>
<path d="M1087.13 483.932C1087.13 483.932 1087.06 483.914 1086.97 483.879C1086.97 483.879 1087.08 483.914 1087.13 483.932Z" fill="white"/>
<path d="M870.736 623.133C871.821 622.03 873.246 621.87 874.688 620.749C873.246 621.87 871.821 622.03 870.575 623.008L870.736 623.115L870.736 623.133Z" fill="white"/>
<path d="M891.92 610.038C890.959 610.797 889.778 611.551 888.377 612.298L888.538 612.387C889.831 611.58 890.959 610.797 891.92 610.038Z" fill="white"/>
<path d="M1085.19 478.719C1084.28 478.648 1084.21 479.662 1082.84 480C1084.18 479.662 1085.5 479.324 1085.19 478.719Z" fill="white"/>
<path d="M1085.14 478.596C1085.14 478.596 1085.19 478.684 1085.21 478.719C1085.25 478.719 1085.28 478.719 1085.32 478.719L1085.14 478.578L1085.14 478.596Z" fill="white"/>
<path d="M1085.19 430.219C1085.19 430.219 1085.17 430.183 1085.14 430.148C1085.14 430.148 1085.17 430.183 1085.19 430.219Z" fill="white"/>
<path d="M1070.47 436.482L1070.4 436.411C1070.44 436.465 1070.45 436.482 1070.47 436.482Z" fill="white"/>
<path d="M1100.61 424.686L1100.56 424.615C1100.57 424.65 1100.61 424.686 1100.61 424.686Z" fill="white"/>
<path d="M712.764 443.241L712.657 443.402C712.497 443.918 721.095 442.69 712.764 443.241Z" fill="white"/>
<path d="M728.341 642.295C728.341 642.295 728.359 642.313 728.394 642.348C728.394 642.348 728.358 642.313 728.341 642.295Z" fill="white"/>
<path d="M856.779 631.354L856.619 631.247C856.032 636.994 857.474 631.176 856.779 631.354Z" fill="white"/>
<path d="M881.808 616.461L881.968 616.568C881.879 617.048 890.495 615.002 881.808 616.461Z" fill="white"/>
<path d="M877.945 618.633C876.734 619.297 875.649 620.003 874.687 620.75C875.649 620.003 876.782 619.333 878.087 618.74C878.924 618.384 881.416 618.028 881.79 616.462C881.826 616.338 881.861 616.231 881.861 616.089C880.419 617.209 878.995 617.387 877.945 618.633Z" fill="white"/>
<path d="M842.325 188.272C842.325 188.272 842.325 188.289 842.36 188.324C842.36 188.324 842.343 188.289 842.325 188.272Z" fill="white"/>
<path d="M851.563 179.926C851.563 179.926 851.563 179.89 851.599 179.855C851.599 179.855 851.581 179.89 851.563 179.926Z" fill="white"/>
<path d="M971.013 554.867L970.906 554.814L970.852 554.778C970.87 554.316 962.272 556.967 971.013 554.885L971.013 554.867Z" fill="white"/>
<path d="M983.563 545.276L983.474 545.223L983.402 545.187C983.794 544.742 975.178 547.482 983.563 545.294L983.563 545.276Z" fill="white"/>
<path d="M1015.34 521.988C1015.34 521.863 1015.37 521.738 1015.37 521.596C1014 522.895 1012.63 523.251 1011.8 524.532C1011.6 524.55 1011.37 524.656 1011.67 524.71L1011.85 524.816C1013.74 524.051 1015.09 523.713 1015.32 522.13C1015.37 522.628 1023.85 519.692 1015.32 521.97L1015.34 521.988Z" fill="white"/>
<path d="M1103.87 33.9648C1103.87 33.9648 1103.88 33.9649 1103.92 33.9299C1103.92 33.9299 1103.9 33.9473 1103.87 33.9648Z" fill="white"/>
<path d="M1051.55 49.2109L1051.6 49.1584C1051.57 49.1934 1051.57 49.1934 1051.55 49.2109Z" fill="white"/>
<path d="M229.644 803.451C230.178 804.074 230.178 802.757 229.519 803.291C230.178 802.757 221.562 804.074 229.644 803.451Z" fill="white"/>
<path d="M1062.94 45.084C1062.94 45.084 1062.94 45.084 1062.98 45.0505C1062.98 45.0505 1062.98 45.0505 1062.94 45.084Z" fill="white"/>
<path d="M1153.18 232.109C1160.35 214.851 1147.43 201.579 1134.52 190.975C1135.96 185.673 1133.08 181.688 1128.77 177.702C1127.33 159.128 1135.95 143.205 1146 127.281C1147.45 125.947 1147.45 123.296 1147.45 121.979C1156.06 111.358 1164.68 102.07 1171.85 90.1322L1171.85 87.4813C1167.54 86.1469 1163.24 88.8156 1158.93 90.1322L1158.93 95.4341C1147.45 112.692 1135.96 129.932 1123.04 145.856C1123.04 147.19 1121.6 149.841 1121.6 151.157C1114.42 160.445 1108.67 169.732 1110.19 182.222C1110.56 189.569 1113.78 196.49 1119.6 201.632C1130.21 212.218 1148.87 216.203 1150.31 232.127L1151.75 230.793C1152.71 230.793 1153.2 231.237 1153.2 232.127L1153.18 232.109Z" fill="white"/>
</g>
<defs>
<clipPath id="clip0_8035_133888">
<rect width="1920" height="803.629" fill="white" transform="translate(1680 803.629) rotate(-180)"/>
</clipPath>
</defs>
</svg>
